<svg width="374" height="230" viewBox="0 0 374 230" fill="none" xmlns="http://www.w3.org/2000/svg">
<path d="M6.43396 331.312L1 350H239.5H358.75H478V262.75V175.5V1H467.232C452.339 1 437.708 4.91511 424.806 12.3528L419.554 15.3808C408.119 21.9723 398.948 31.8699 393.245 43.7722C384.285 62.4698 366.989 75.8098 346.629 79.7252L314 86L286.219 94.4075C255.969 103.562 232.024 126.797 221.964 156.758L221.228 158.95C217.127 171.165 210.372 182.321 201.449 191.616C186.966 206.702 167.549 216.087 146.73 218.064L133.485 219.321C111.563 221.402 90.6012 229.325 72.7831 242.263L65.1622 247.796C36.8606 268.346 16.1997 297.728 6.43396 331.312Z" fill="#433128" stroke="#433128"/>
</svg>
