<svg width="114" height="90" viewBox="0 0 114 90" fill="none" xmlns="http://www.w3.org/2000/svg">
<path d="M8.0031 70.7513C5.71264 68.049 5.63565 68.1944 14.4861 61.9216C31.1009 50.1966 45.7565 43.2587 57.5071 60.036C62.233 66.7828 63.2244 68.7409 66.8552 77.9411C67.7437 80.1984 67.4954 81.0533 66.085 80.3433C64.8198 79.7103 26.495 73.0479 15.4753 71.4716C10.5852 70.7606 11.7299 73.377 15.081 74.1474C23.4589 76.0734 46.0367 80.1067 61.5956 83.548C75.2139 86.6126 84.4037 89.3596 91.5169 89.0709C104.948 88.5191 100.845 86.8849 108.968 54.0234C111.279 44.6027 113.677 27.3934 113.037 25.2302C109.74 14.9786 88.4708 7.52598 50.034 3.11204C36.5863 1.5522 28.1823 1.36171 27.9768 2.59276C27.677 4.38805 33.9949 5.7065 51.8625 7.63523C64.3955 8.98962 70.277 10.077 84.8783 13.8857C99.0264 17.566 106.917 20.5178 108.25 22.6384C110.498 26.2298 110.693 27.5806 109.521 31.4446C108.023 36.3088 105.155 50.9616 104.625 53.5092L103.523 50.9527C95.0047 30.919 73.9308 29.5622 54.1166 47.818L52.5602 49.2453L49.9189 47.6971C39.3707 41.4017 23.4335 45.9112 9.61389 59.2101L5.4149 63.2015L5.50993 60.1066C5.61342 56.9605 9.40665 35.8189 13.3962 16.3446C15.7678 4.66678 16.3068 3.96592 19.7781 3.06923C22.1977 2.47147 22.3431 0.966741 19.7784 0.538538C16.1365 -0.0695115 14.3664 1.37484 12.0996 5.47789C8.31029 12.3847 -1.71324 55.6845 0.669162 65.7307C1.59136 69.6808 2.82177 71.7843 5.97621 72.7854C9.20754 73.9576 9.97732 73.1371 8.0031 70.7513ZM56.3979 52.4695C56.7913 52.0079 73.4309 42.6596 75.4745 41.7882C81.0494 39.3447 88.0598 39.6715 92.744 42.5626C95.9922 44.5812 98.0605 47.0354 100.256 51.2509C103.708 58.0487 103.657 57.7238 101.655 64.6653C100.679 67.9822 99.2501 73.0687 98.4542 75.941C95.4416 87.0373 93.9541 86.1562 70.821 80.7122L69.087 75.9412C67.2845 70.9478 63.4566 63.8764 58.7564 56.9757C57.2865 54.7268 56.1499 52.6917 56.3979 52.4695Z" fill="#775E50"/>
</svg>
