<svg width="175" height="116" viewBox="0 0 175 116" fill="none" xmlns="http://www.w3.org/2000/svg">
<path d="M168.958 40.8814C160.544 27.1983 158.53 31.9324 163.15 39.4288C165.744 43.6797 166.178 44.7681 165.201 44.5494C149.014 40.7146 118.925 53.4963 101.998 71.5471L93.919 80.1576C92.6234 73.5385 91.9114 69.7335 91.2782 67.663C90.7511 65.848 87.4487 65.7058 87.3548 67.7962C87.2403 70.2914 87.877 74.6419 88.7758 81.5767L86.2483 79.5312C73.6832 69.2948 40.9247 69.9206 11.3493 81.0313C6.40949 82.8955 6.57197 84.1503 9.3994 67.1126C13.1813 43.9248 13.7092 32.7955 14.4379 28.282C14.756 26.2319 38.2047 23.0293 47.2752 23.7569C55.7536 24.4211 75.0633 29.8279 78.0818 32.2843C79.064 33.1059 80.2793 36.8508 82.6873 46.4223C86.2951 60.7464 86.3824 59.73 87.8163 60.0953C90.371 60.6621 87.4973 48.0611 84.4831 32.1234L93.093 24.7908C113.471 7.46801 133.054 6.53776 136.427 5.5314L141.856 11.3885C153.893 24.3037 156.086 29.4073 157.041 26.0741C157.39 24.8251 141.419 2.38655 139.193 0.975698C134.982 -1.67361 103.081 1.06303 83.9195 23.2706C78.9098 29.1002 79.5311 28.8249 76.2389 27.0718C54.9918 15.7261 10.7191 15.9161 9.7222 27.3697C9.09464 34.3526 2.28092 62.8656 0.872058 81.2765C0.536961 86.0113 0.619303 87.2087 1.59812 88.5673C2.75491 90.1729 3.27522 90.2449 6.22507 89.3561C7.49296 89.0035 7.76833 89.44 8.88765 94.1353C10.1131 99.0861 11.944 101.953 13.2785 100.988C14.2162 100.34 14.0831 101.563 13.113 103.087C10.8101 106.716 14.6926 113.026 18.7547 112.273C20.5342 111.926 21.0801 112.196 21.9409 113.77C23.3698 116.349 24.7695 116.45 27.5396 114.174C30.4449 111.815 35.7028 107.901 44.9237 104.721C54.1445 101.541 84.2336 100.026 87.3427 100.929C89.2421 101.507 90.1936 101.528 90.4845 100.957C90.7206 100.526 93.0953 99.7059 95.8724 99.173C105.193 97.3222 120.007 93.9434 126.626 92.0799C136.481 89.2933 155.45 87.5645 161.968 88.8653C169.23 90.2784 171.086 87.7092 165.807 83.5778C163.94 82.124 163.842 81.9346 165.179 82.1103C175.628 83.3439 177.078 79.8845 169.846 70.822C166.622 66.7805 166.648 66.9786 170.457 66.5238C174.984 65.9831 174.563 64.4237 168.287 57.6616C162.607 51.5659 162.599 51.4999 168.579 52.5966C175.752 53.8861 175.799 52.0025 168.958 40.8814ZM40.2962 95.4816C31.6947 97.2465 24.1509 102.104 23.3946 102.463C22.2157 102.939 21.331 102.307 21.6115 100.53C21.762 99.4387 21.9587 98.141 21.9621 97.604C22.0919 94.101 45.9458 87.8318 57.6753 88.2419C69.1807 88.6116 70.9277 89.1408 81.0403 91.1524C64.3744 92.0696 49.4641 93.5819 40.2962 95.4816ZM87.6156 86.1418C50.1717 81.0227 35.9 82.3917 17.604 92.692C15.1623 94.1237 13.037 95.1823 12.948 95.0588C12.7786 94.8778 11.8681 91.2308 10.8772 87.5262C27.8354 81.544 41.315 76.3125 58.6842 76.3173C63.8636 76.3024 71.0708 77.8561 76.6935 80.1357C86.3271 84.0824 90.889 86.6228 87.6156 86.1418ZM107.568 75.1072C125.429 56.9448 138.818 50.4499 155.297 52.0365C156.993 52.1693 164.508 58.9176 163.875 59.6639C163.749 59.8131 162.214 59.7953 160.438 59.605C146.648 58.502 139.168 60.4684 122.063 69.8216C117.568 72.3034 112.857 74.811 111.623 75.4278C106.553 77.9782 94.7392 88.175 107.568 75.1072ZM161.25 73.19C152.357 72.7094 142.402 74.1665 133.667 77.1546C127.1 79.4144 107.052 85.7656 106.337 85.3145C105.943 85.0932 115.532 79.1191 120.309 76C129.999 69.6786 142.208 66.4768 157.146 66.3025C160.351 66.2551 160.825 66.5338 163.929 69.6507C168.041 73.7873 168.159 73.5721 161.25 73.19Z" fill="#775E50"/>
</svg>
