<svg width="124" height="127" viewBox="0 0 124 127" fill="none" xmlns="http://www.w3.org/2000/svg">
<path d="M122.303 40.0556C125.4 33.8239 121.633 22.5976 109.956 18.0118C102.391 15.0088 86.1219 12.0289 42.3514 3.87734C35.8542 2.68712 28.3053 1.47948 25.561 1.17947C20.5256 0.707809 18.679 1.03218 19.7987 2.22087C21.32 3.84569 26.9023 5.14679 51.6857 9.54827C112.152 20.3293 116.931 22.0234 119.134 32.8304C119.535 34.8482 113.404 69.6767 111.084 78.5161C109.869 83.2692 107.6 93.0661 106.119 100.358C101.804 121.466 98.9647 124.893 88.2787 122.265C83.1153 120.981 47.7738 116.03 20.1091 111.833C-8.42745 107.49 1.28282 112.802 5.71104 114.068C22.4237 118.81 94.0054 128.072 100.794 125.937C114.192 121.794 121.987 40.6881 122.303 40.0556Z" fill="#775E50"/>
</svg>
