<svg width="434" height="283" viewBox="0 0 434 283" fill="none" xmlns="http://www.w3.org/2000/svg">
<path d="M6.43396 331.312L1 350H239.5H358.75H478V262.75V175.5V1H464.583C451.426 1 438.5 4.45892 427.101 11.0299L417.646 16.4804C407.578 22.2847 400.03 31.6291 396.474 42.6935C391.516 58.1157 378.933 69.8756 363.212 73.7797L314 86L286.219 94.4075C255.969 103.562 232.024 126.797 221.964 156.758L221.228 158.95C217.127 171.165 210.372 182.321 201.449 191.616C186.966 206.702 167.549 216.087 146.73 218.064L133.485 219.321C111.563 221.402 90.6012 229.325 72.7831 242.263L65.1622 247.796C36.8606 268.346 16.1997 297.728 6.43396 331.312Z" fill="#775E50" stroke="#775E50"/>
</svg>
