<svg width="385" height="242" viewBox="0 0 385 242" fill="none" xmlns="http://www.w3.org/2000/svg">
<path d="M329.951 48.1284L332.5 45.5L334.702 43.102C347.878 28.7555 365.351 19.0701 384.5 15.5L174.5 1H82.25H-10V61V121V241H-0.228394C10.3817 241 20.8396 238.476 30.282 233.638L35.7964 230.812C44.2606 226.474 51.2086 219.669 55.7214 211.297C62.5781 198.577 74.9086 189.72 89.1529 187.285L116.868 182.547L142.351 175.692C163.265 170.065 180.196 154.722 187.849 134.462C191.534 124.704 197.437 115.936 205.09 108.849L206.049 107.961C216.019 98.7288 228.371 92.4678 241.711 89.8845L258.965 86.5432C286.002 81.3075 310.78 67.8987 329.951 48.1284Z" fill="#433128" stroke="#433128"/>
</svg>
