<svg width="104" height="71" viewBox="0 0 104 71" fill="none" xmlns="http://www.w3.org/2000/svg">
<path d="M7.75287 57.8718C10.0109 57.3648 10.139 57.4089 10.7577 59.3522C17.3144 79.2747 48.9492 71.8777 49.6332 50.2599C49.788 45.7918 50.8255 43.8881 53.4149 43.5789C54.4386 43.4566 54.9055 43.7568 55.004 44.5163C56.8438 58.7133 81.8268 65.5782 90.0012 54.1009C92.904 50.0759 95.8801 42.8384 95.8704 39.9325L95.8308 37.2675L99.2779 36.4999C105.269 35.0724 105.171 34.7875 95.2559 23.3941C78.0171 3.62005 65.6728 -3.86433 60.1366 2.0177C58.4742 3.81808 58.6473 3.73811 59.9066 16.7586C60.0202 17.6349 60.721 18.3225 61.5944 18.4555C65.3813 18.8931 69.2104 15.4101 65.9049 14.4404C64.5044 14.0143 64.4213 13.8463 64.2754 9.88872C64.0753 4.09845 64.4743 3.87283 68.9863 7.54628C79.3813 16.0347 86.0321 20.6393 89.167 25.0111C89.9809 26.1005 89.9434 26.283 89.2579 25.7122C88.452 25.1559 84.3641 25.2287 84.4398 25.813C84.4549 25.9298 85.487 27.2898 86.7152 28.745C98.5222 42.9382 83.3245 64.8654 69.1488 54.0994C58.5057 46.0559 64.4993 27.1858 78.2292 25.5461C82.023 25.093 82.602 24.3713 79.974 23.4392C72.6624 20.8121 61.3829 27.6766 57.2496 37.3067L55.8895 40.4949L51.6893 41.1152C49.2881 41.4613 47.4588 41.5017 47.4134 41.1512C47.262 39.9827 43.9557 38.0637 42.4503 38.2435C40.5233 38.4736 40.5989 39.0579 42.8064 41.464C52.3673 52.0099 38.9212 70.9395 25.4272 65.9062C8.46189 59.567 17.1523 33.196 35.1844 36.4415C40.3794 37.3636 41.162 37.2701 40.363 35.823C34.8526 25.8614 14.4291 35.7757 11.2477 49.9198C10.3999 53.7587 10.2945 53.89 8.24701 54.1345C6.50066 54.343 6.17697 54.2037 6.42471 53.2842C6.58987 52.6712 7.31584 46.9483 8.12404 40.4444C10.6081 19.9762 15.1676 6.55746 17.6264 12.7899C19.1801 16.7573 20.3453 24.8055 19.3818 24.9205C16.8526 25.2226 17.3524 29.0785 20.0175 29.3535C25.7318 30.0356 25.6901 14.6153 19.9885 10.728C13.6166 6.38672 7.38788 12.1141 5.20646 24.5369C4.68175 27.566 3.65422 32.8502 2.94163 36.317C-0.741392 54.14 0.489456 59.3918 7.75287 57.8718Z" fill="#775E50"/>
</svg>
