<svg width="445" height="328" viewBox="0 0 445 328" fill="none" xmlns="http://www.w3.org/2000/svg">
<path d="M331.06 108.218L366.5 74C383.052 57.4477 404.527 46.7104 427.7 43.4L444.5 41L206.5 1H98.25H-10V82.5V164V327H-0.679504C13.1251 327 26.6752 323.283 38.548 316.24L42.8921 313.664C53.3789 307.443 61.7433 298.201 66.8904 287.147C75.0465 269.632 91.0722 257.061 110.026 253.31L138.872 247.602L159.429 241.2C189.811 231.739 213.726 208.144 223.597 177.893L225.608 171.729C227.682 165.376 230.805 159.415 234.849 154.094C244.836 140.953 259.81 132.524 276.226 130.802L284.459 129.939C301.981 128.101 318.385 120.455 331.06 108.218Z" fill="#775E50" stroke="#775E50"/>
</svg>
