<svg width="506" height="337" viewBox="0 0 506 337" fill="none" xmlns="http://www.w3.org/2000/svg">
<path d="M5.64569 346.196L1 361H266.5H399.25H532V271V181V1H515.629C501.893 1 488.369 4.38565 476.254 10.8574L464.156 17.3195C453.381 23.0753 445.173 32.6827 441.169 44.2242C435.693 60.0111 422.481 71.871 406.197 75.6179L349.434 88.6791L314.71 98.4166C283.404 107.195 258.258 130.541 247.182 161.109L246.738 162.335C241.796 175.973 233.8 188.3 223.363 198.375C207.697 213.496 187.319 222.786 165.629 224.694L148.278 226.22C123.962 228.359 100.585 236.629 80.3321 250.255L74.1846 254.392C41.5817 276.328 17.4113 308.703 5.64569 346.196Z" fill="#C9AC9C" stroke="#C9AC9C"/>
</svg>
